<svg height="511pt" viewBox="-45 1 511 511.9985" width="511pt" xmlns="http://www.w3.org/2000/svg"><path d="m316.316406 111.910156c2.710938-3.132812 2.371094-7.867187-.761718-10.578125-29.273438-25.332031-66.398438-39.269531-104.546876-39.269531-.1875 0-.382812 0-.570312 0-42.453125 0-82.628906 16.773438-113.160156 47.246094-31.015625 30.960937-48.097656 71.917968-48.097656 115.324218v18.207032c0 27.136718 10.621093 52.414062 29.910156 71.183594 17.351562 16.886718 40.011718 26.882812 64.457031 28.582031v11.960937c0 15.152344 12.328125 27.480469 27.476563 27.480469h79.378906c15.152344 0 27.480468-12.328125 27.480468-27.480469v-11.960937c24.445313-1.699219 47.105469-11.695313 64.457032-28.582031 19.285156-18.769532 29.90625-44.046876 29.90625-71.183594v-18.207032c0-36.171874-12.421875-71.882812-34.984375-100.554687-2.558594-3.253906-7.273438-3.816406-10.53125-1.253906-3.253907 2.558593-3.816407 7.273437-1.257813 10.53125 20.488282 26.039062 31.773438 58.457031 31.773438 91.277343v18.207032c0 23.050781-9.007813 44.511718-25.367188 60.433594-16.300781 15.859374-38.140625 24.59375-61.496094 24.59375-4.144531 0-7.503906 3.355468-7.503906 7.5v19.203124c0 6.878907-5.59375 12.476563-12.476562 12.476563h-2.355469v-19.890625c0-4.144531-3.355469-7.503906-7.5-7.503906-4.140625 0-7.5 3.359375-7.5 7.503906v19.890625h-14.832031v-19.890625c0-4.144531-3.359375-7.503906-7.5-7.503906-4.144532 0-7.5 3.359375-7.5 7.503906v19.890625h-14.832032v-19.890625c0-4.144531-3.359374-7.503906-7.503906-7.503906-4.140625 0-7.5 3.359375-7.5 7.503906v19.890625h-2.355468c-6.878907 0-12.476563-5.597656-12.476563-12.476563v-19.203124c0-4.144532-3.359375-7.5-7.5-7.5-23.355469 0-45.195313-8.734376-61.496094-24.59375-16.359375-15.921876-25.367187-37.382813-25.367187-60.433594v-18.207032c0-39.394531 15.515625-76.578124 43.691406-104.703124 4.636719-4.628907 9.523438-8.902344 14.617188-12.820313l9.5625 19.421875s-10.878907 0-10.902344 0c-5.382813 0-9.0625 5.742188-6.8125 10.636719 0 0 13.558594 29.488281 13.574218 29.523437 1.707032 3.714844 6.25 5.382813 9.949219 3.683594 3.761719-1.730469 5.410157-6.1875 3.679688-9.949219l-8.683594-18.890625h11.25c5.4375 0 9.132813-5.929687 6.726563-10.816406l-15.863282-32.226562c22.632813-13.960938 48.554688-21.429688 75.496094-21.429688h.257812c34.671876-.070312 68.402344 12.585938 95.011719 35.613281 3.132813 2.710938 7.867188 2.367188 10.578125-.765625zm0 0"/><path d="m144.105469 269.898438c-4.140625 0-7.5 3.359374-7.5 7.5v16.445312c0 4.140625 3.359375 7.5 7.5 7.5 4.144531 0 7.503906-3.359375 7.503906-7.5v-16.445312c0-4.140626-3.359375-7.5-7.503906-7.5zm0 0"/><path d="m269.253906 277.398438v16.445312c0 4.140625 3.359375 7.5 7.503906 7.5 4.140626 0 7.5-3.359375 7.5-7.5v-16.445312c0-4.140626-3.359374-7.5-7.5-7.5-4.144531 0-7.503906 3.359374-7.503906 7.5zm0 0"/><path d="m204.402344 290.132812-6.351563 13.175782c-2.132812 4.417968 1.089844 9.550781 5.996094 9.550781h13.175781c4.992188 0 8.207032-5.292969 5.914063-9.722656l-6.824219-13.175781c-2.523438-4.871094-9.527344-4.773438-11.910156.171874zm0 0"/><path d="m420.925781 206.714844c0-45.207032-14.5625-88.144532-42.113281-124.175782-26.621094-34.816406-64.492188-60.957031-106.636719-73.609374-39.664062-11.90625-83.320312-11.90625-122.925781 0-27.273438 8.1875-52.214844 21.574218-74.125 39.78125-3.1875 2.648437-3.625 7.378906-.976562 10.566406 2.648437 3.183594 7.378906 3.621094 10.5625.972656 20.355468-16.914062 43.519531-29.347656 68.855468-36.953125 36.824219-11.070313 77.414063-11.070313 114.296875 0 39.140625 11.753906 74.3125 36.027344 99.03125 68.355469 25.535157 33.390625 39.027344 73.179687 39.027344 115.0625 0 94.109375-69.363281 172.601562-160.5 188.734375-11.453125 2.027343-23.082031 3.039062-34.710937 3.039062-11.503907 0-23.273438-1.007812-34.699219-3.039062-91.144531-16.128907-160.511719-94.621094-160.511719-188.734375 0-46.554688 17.195312-91.445313 48.414062-126.40625 2.761719-3.089844 2.492188-7.832032-.597656-10.589844-3.089844-2.761719-7.832031-2.492188-10.589844.597656-33.679687 37.710938-52.226562 86.152344-52.226562 136.398438 0 88.648437 57.011719 164.433594 136.859375 193.773437-.152344.148438-.304687.292969-.457031.445313-9.367188 9.257812-22.472656 24.960937-31.722656 47.191406-3.707032 8.902344-6.511719 18.1875-8.328126 27.582031-1.832031 9.316407-2.761718 19-2.761718 28.789063 0 4.144531 3.359375 7.503906 7.5 7.503906h218.246094c4.140624 0 7.5-3.359375 7.5-7.503906 0-9.789063-.929688-19.472656-2.753907-28.765625-1.824219-9.417969-4.625-18.703125-8.332031-27.601563-9.253906-22.238281-22.359375-37.941406-31.726562-47.199218-.152344-.148438-.300782-.292969-.453126-.441407 79.84375-29.339843 136.855469-105.125 136.855469-193.773437zm-153.300781 199.089844c1.589844 1.328124 3.789062 3.265624 6.351562 5.796874 18.335938 18.121094 30.90625 41.726563 35.878907 67 1.175781 5.984376 1.9375 12.144532 2.277343 18.398438h-202.839843c.339843-6.253906 1.101562-12.417969 2.28125-18.417969 4.878906-25.234375 17.59375-48.914062 35.875-66.976562 2.5625-2.535157 4.761719-4.472657 6.351562-5.800781 6.367188 1.757812 12.8125 3.210937 19.316407 4.367187 26.382812 4.695313 53.640624 4.398437 79.910156-.890625 4.90625-.988281 9.773437-2.144531 14.597656-3.476562zm0 0"/></svg>